<svg id="Capa_1" enable-background="new 0 0 515.556 515.556" height="512" viewBox="0 0 515.556 515.556" width="512" xmlns="http://www.w3.org/2000/svg"><path d="m257.778 0c-142.137 0-257.778 115.641-257.778 257.778s115.641 257.778 257.778 257.778 257.778-115.641 257.778-257.778-115.642-257.778-257.778-257.778zm-193.334 257.778c0-41.69 13.397-80.235 35.924-111.846l269.255 269.255c-31.611 22.526-70.156 35.924-111.846 35.924-106.609 0-193.333-86.723-193.333-193.333zm350.743 111.846-269.256-269.256c31.611-22.526 70.156-35.924 111.846-35.924 106.61 0 193.333 86.723 193.333 193.333 0 41.691-13.397 80.236-35.923 111.847z"/></svg>