<svg height="512pt" viewBox="0 0 512 512" width="512pt" xmlns="http://www.w3.org/2000/svg"><path d="m512 235.640625c0-36.195313-6.921875-68.707031-20.578125-96.640625-13.007813-26.609375-32.128906-49.148438-56.832031-66.996094-43.785156-31.640625-105.542969-48.363281-178.589844-48.363281-65.574219 0-122.039062 13.488281-164.585938 39.132813l-62.773437-62.773438-28.28125 28.285156 483 483 28.28125-28.285156-80.96875-80.972656c53.320313-36.59375 81.328125-93.578125 81.328125-166.386719zm-256-172c64.582031 0 118.238281 14.105469 155.164062 40.785156 40.367188 29.164063 60.835938 73.3125 60.835938 131.214844 0 62.328125-23.625 108.496094-70.226562 137.488281l-281.023438-281.019531c35.277344-18.679687 81.46875-28.46875 135.25-28.46875zm62.699219 338.984375 33.804687 33.804688c-28.976562 7.453124-61.238281 11.210937-96.503906 11.210937-20.441406 0-40.183594-1.3125-58.84375-3.90625-42.332031 42.460937-94.390625 44.910156-105.738281 44.910156-.109375 0-.214844 0-.316407 0h-.105468l-35.957032-.054687 18.984376-30.519532c.097656-.164062 11.109374-18.300781 19.589843-48.230468-61.328125-36.027344-93.613281-95.914063-93.613281-174.199219 0-36.195313 6.921875-68.707031 20.578125-96.640625 3.722656-7.613281 7.964844-14.886719 12.675781-21.820312l28.976563 28.976562c-14.769531 24.648438-22.230469 54.558594-22.230469 89.484375 0 68.878906 28.816406 118.015625 85.652344 146.050781l14.074218 6.941406-3.394531 15.320313c-3.292969 14.867187-7.375 27.914063-11.402343 38.785156 15.515624-5.226562 33.796874-15.046875 49.632812-33.4375l7.367188-8.558593 11.136718 1.890624c19.570313 3.324219 40.746094 5.007813 62.933594 5.007813 22.152344 0 43.171875-1.699219 62.699219-5.015625zm0 0"/></svg>