<?xml version="1.0" encoding="iso-8859-1"?>
<!-- Generator: Adobe Illustrator 19.0.0, SVG Export Plug-In . SVG Version: 6.00 Build 0)  -->
<svg version="1.1" id="Capa_1" xmlns="http://www.w3.org/2000/svg" xmlns:xlink="http://www.w3.org/1999/xlink" x="0px" y="0px"
	 viewBox="0 0 512 512" style="enable-background:new 0 0 512 512;" xml:space="preserve">
<g>
	<g>
		<path d="M54.8,374.3c0-78.705,64.042-142.747,142.753-142.747c33.614,0,64.851,11.274,90.345,32.608l21.638-25.864
			c-31.636-26.471-70.359-40.46-111.982-40.46c-97.308,0-176.474,79.166-176.474,176.469v83.741c0,9.313,7.548,16.861,16.861,16.861
			h268.645V441.18H54.8V374.3z"/>
	</g>
</g>
<g>
	<g>
		<path d="M197.553,0C133.713,0,81.777,51.936,81.777,115.776s51.936,115.776,115.776,115.776s115.776-51.936,115.776-115.776
			S261.393,0,197.553,0z M197.553,197.831c-45.243,0-82.055-36.812-82.055-82.055c0-45.243,36.812-82.055,82.055-82.055
			c45.243,0,82.055,36.812,82.055,82.055S242.795,197.831,197.553,197.831z"/>
	</g>
</g>
<g>
	<g>
		<path d="M482.036,257.163l-106.784-57.326c-5.03-2.703-11.1-2.67-16.113,0.09l-103.974,57.326
			c-5.379,2.962-8.717,8.621-8.717,14.764v80.931c0,65.571,39.044,125.021,99.433,151.442l14.05,6.182
			c2.164,0.95,4.474,1.427,6.789,1.427c2.192,0,4.378-0.433,6.441-1.281l16.299-6.739c0.022-0.011,0.045-0.017,0.067-0.028
			c61.592-25.774,101.394-85.489,101.394-152.128v-79.801C490.921,265.807,487.51,260.103,482.036,257.163z M457.206,351.824
			c0,52.993-31.659,100.489-80.655,121.008l-9.622,3.974l-7.497-3.293c-48.148-21.07-79.262-68.392-79.262-120.564v-70.972
			l87.225-48.092l89.811,48.216V351.824z"/>
	</g>
</g>
<g>
	<g>
		<path d="M430.353,322.032c-5.912-7.205-16.529-8.262-23.729-2.366l-52.363,42.888l-17.383-20.508
			c-6.025-7.098-16.658-7.992-23.768-1.967c-7.104,6.025-7.986,16.664-1.967,23.768l28.101,33.159
			c3.333,3.934,8.082,5.963,12.876,5.963c3.76,0,7.542-1.248,10.673-3.816l65.194-53.392
			C435.192,339.859,436.254,329.231,430.353,322.032z"/>
	</g>
</g>
<g>
</g>
<g>
</g>
<g>
</g>
<g>
</g>
<g>
</g>
<g>
</g>
<g>
</g>
<g>
</g>
<g>
</g>
<g>
</g>
<g>
</g>
<g>
</g>
<g>
</g>
<g>
</g>
<g>
</g>
</svg>
